<?xml version="1.0" encoding="UTF-8" standalone="no"?>
<!-- Created with Inkscape (http://www.inkscape.org/) -->

<svg
   xmlns:dc="http://purl.org/dc/elements/1.1/"
   xmlns:cc="http://creativecommons.org/ns#"
   xmlns:rdf="http://www.w3.org/1999/02/22-rdf-syntax-ns#"
   xmlns:svg="http://www.w3.org/2000/svg"
   xmlns="http://www.w3.org/2000/svg"
   xmlns:sodipodi="http://sodipodi.sourceforge.net/DTD/sodipodi-0.dtd"
   xmlns:inkscape="http://www.inkscape.org/namespaces/inkscape"
   version="1.1"
   id="svg5538"
   width="218.2419"
   height="200.86731"
   viewBox="0 0 218.2419 200.86731"
   sodipodi:docname="comvida.svg"
   inkscape:version="0.92.1 r15371">
  <metadata
     id="metadata5544">
    <rdf:RDF>
      <cc:Work
         rdf:about="">
        <dc:format>image/svg+xml</dc:format>
        <dc:type
           rdf:resource="http://purl.org/dc/dcmitype/StillImage" />
        <dc:title />
      </cc:Work>
    </rdf:RDF>
  </metadata>
  <defs
     id="defs5542" />
  <sodipodi:namedview
     pagecolor="#ffffff"
     bordercolor="#666666"
     borderopacity="1"
     objecttolerance="10"
     gridtolerance="10"
     guidetolerance="10"
     inkscape:pageopacity="0"
     inkscape:pageshadow="2"
     inkscape:window-width="640"
     inkscape:window-height="480"
     id="namedview5540"
     showgrid="false"
     inkscape:pagecheckerboard="true"
     inkscape:zoom="1.3448922"
     inkscape:cx="-29.203808"
     inkscape:cy="29.157701"
     inkscape:current-layer="g4524">
    <inkscape:grid
       type="xygrid"
       id="grid5380" />
  </sodipodi:namedview>
  <g
     id="g4524"
     inkscape:label="logo">
    <g
       inkscape:label="logo"
       transform="translate(-23.126991,-26.711521)"
       id="g6140">
      <g
         id="g6104">
        <path
           sodipodi:nodetypes="csccc"
           inkscape:connector-curvature="0"
           id="path5548"
           d="m 76.59274,138.1145 c 3.17412,2.6886 9.019129,-1.85102 7.292756,-5.18988 -1.967797,-3.80578 -10.485687,-17.37023 -10.485687,-17.37023 -2.341762,-3.28408 -9.487958,1.28787 -7.878241,4.75667 z"
           style="fill:#ffb015;fill-opacity:1;stroke:none;stroke-width:0.2;stroke-linecap:butt;stroke-linejoin:miter;stroke-miterlimit:4;stroke-dasharray:none;stroke-opacity:1" />
        <path
           sodipodi:nodetypes="ccccc"
           inkscape:connector-curvature="0"
           id="path6097"
           d="m 77.236674,75.33397 c 6.354487,-2.120849 7.693533,1.238948 8.829704,3.624826 L 72.124739,111.1175 c -3.094774,2.70269 -8.67712,-0.48134 -7.900261,-4.74015 3.788968,-10.46094 8.627505,-20.914086 13.012196,-31.04338 z"
           style="fill:#ffb015;fill-opacity:1;stroke:none;stroke-width:1px;stroke-linecap:butt;stroke-linejoin:miter;stroke-opacity:1" />
        <path
           sodipodi:nodetypes="ccccc"
           inkscape:connector-curvature="0"
           id="path6099"
           d="m 25.187892,115.11411 c -3.693156,2.01164 -1.84317,7.83269 1.022387,8.08615 l 35.783537,-4.46132 c 3.918545,-1.82791 3.138513,-7.8383 -1.022387,-8.55088 z"
           style="fill:#ffb015;fill-opacity:1;stroke:none;stroke-width:1px;stroke-linecap:butt;stroke-linejoin:miter;stroke-opacity:1" />
      </g>
      <path
         style="fill:#ea347f;fill-opacity:1;fill-rule:evenodd;stroke:none;stroke-width:0.19920333;stroke-miterlimit:4;stroke-dasharray:none;stroke-opacity:1"
         d="m 115.72969,26.711521 a 24.840399,24.317356 0 0 0 -24.839851,24.31836 24.840399,24.317356 0 0 0 24.839851,24.316406 24.840399,24.317356 0 0 0 24.83984,-24.316406 24.840399,24.317356 0 0 0 -24.83984,-24.31836 z m 0.0449,9.591797 a 14.97948,15.043706 0 0 1 14.98047,15.042969 14.97948,15.043706 0 0 1 -14.98047,15.044922 14.97948,15.043706 0 0 1 -14.97852,-15.044922 14.97948,15.043706 0 0 1 14.97852,-15.042969 z"
         id="path6106"
         inkscape:connector-curvature="0" />
      <ellipse
         style="fill:#7e52a9;fill-opacity:1;fill-rule:evenodd;stroke:none;stroke-width:0.21472447;stroke-miterlimit:4;stroke-dasharray:none;stroke-opacity:1"
         id="path6111"
         cx="154.3804"
         cy="95.224037"
         rx="8.0861502"
         ry="8.1790943" />
      <path
         style="fill:#7e52a9;fill-opacity:1;stroke:none;stroke-width:1px;stroke-linecap:butt;stroke-linejoin:miter;stroke-opacity:1"
         d="m 191.90681,52.964274 c 3.93294,-5.244586 6.35651,-2.187641 8.93813,0 l 0.13144,44.296298 c -2.00691,4.686528 -4.81666,3.351738 -7.49225,3.023188 l -38.11848,-30.49478 -39.4329,30.62622 c -4.2233,-0.2244 -5.67686,-2.625014 -4.99484,-6.70359 l 41.01022,-32.466426 c 2.97394,-2.754979 4.73065,-1.046784 6.7036,-0.131443 l 33.51797,26.157161 z"
         id="path6113"
         inkscape:connector-curvature="0"
         sodipodi:nodetypes="ccccccccccc" />
      <path
         style="fill:#28afe7;fill-opacity:1;stroke:none;stroke-width:1px;stroke-linecap:butt;stroke-linejoin:miter;stroke-opacity:1"
         d="m 97.267836,133.93317 c -4.39106,-2.55095 -2.836105,-8.86029 3.943294,-8.41235 l 10.51544,3.94329 c 7.23455,2.1296 12.74859,0.22926 15.11595,-2.76031 l 7.22936,-10.12111 c 7.49108,-9.30693 13.52486,-6.15424 19.32213,-3.94329 13.68262,14.28601 16.20657,6.51706 22.47676,-0.65721 5.80972,-5.82842 8.03197,-3.77061 11.56698,-4.07474 4.06655,1.15955 4.36876,8.21155 0,8.93813 l -2.89175,-0.13144 c -2.25029,0.0263 -8.09796,7.62101 -12.09275,11.56698 -3.90335,3.01616 -10.9814,3.00267 -13.93296,0.39433 l -9.59535,-7.62369 c -1.93163,-0.66487 -3.34038,-3.29053 -6.57215,0.9201 l -9.46389,12.48708 c -6.53605,5.80907 -12.42226,5.76968 -18.27058,5.38917 -5.61227,-1.45798 -11.38773,-3.40553 -17.350484,-5.91494 z"
         id="path6115"
         inkscape:connector-curvature="0"
         sodipodi:nodetypes="ccccccccccccccccc" />
      <path
         style="fill:#9aca40;fill-opacity:1;stroke:none;stroke-width:1px;stroke-linecap:butt;stroke-linejoin:miter;stroke-opacity:1"
         d="m 51.677004,153.59303 c -4.47932,2.89027 -1.742089,9.46839 1.858885,8.55087 20.322911,-5.04008 40.493611,-10.72945 59.112551,-10.03798 14.27813,-0.52624 29.35283,1.73548 44.61324,4.64721 23.3931,3.83985 35.72028,2.64973 48.5169,1.673 4.97456,-1.19696 4.60695,-9.17496 -1.85888,-9.29442 -6.9482,0.74236 -23.09398,0.86122 -27.32561,0.37178 -15.95305,-0.97232 -29.48664,-4.56167 -44.42736,-6.32022 -16.40832,-1.04683 -32.15786,-1.0396 -46.100352,1.85889 -10.543166,2.5939 -26.473698,5.09524 -34.389374,8.55087 z"
         id="path6117"
         inkscape:connector-curvature="0"
         sodipodi:nodetypes="cccccccccc" />
    </g>
    <text
       inkscape:label="rio"
       transform="scale(1.0680299,0.93630337)"
       id="text6121"
       y="175.58492"
       x="4.396472"
       style="font-style:normal;font-variant:normal;font-weight:300;font-stretch:normal;font-size:37.2733345px;line-height:1.25;font-family:'Yu Gothic';-inkscape-font-specification:'Yu Gothic, Light';font-variant-ligatures:normal;font-variant-caps:normal;font-variant-numeric:normal;font-feature-settings:normal;text-align:start;letter-spacing:0px;word-spacing:0px;writing-mode:lr-tb;text-anchor:start;fill:#f9f9f9;fill-opacity:1;stroke:none;stroke-width:1;stroke-opacity:1;"
       xml:space="preserve"><tspan
         style="font-style:normal;font-variant:normal;font-weight:300;font-stretch:normal;font-size:37.2733345px;font-family:'Yu Gothic';-inkscape-font-specification:'Yu Gothic, Light';font-variant-ligatures:normal;font-variant-caps:normal;font-variant-numeric:normal;font-feature-settings:normal;text-align:start;writing-mode:lr-tb;text-anchor:start;stroke-width:1;fill:#f9f9f9;"
         y="175.58492"
         x="4.396472"
         id="tspan6119"
         sodipodi:role="line">Rio</tspan></text>
    <text
       inkscape:label="com"
       transform="scale(1.0680299,0.93630337)"
       id="text6125"
       y="214.07286"
       x="3.7254424"
       style="font-style:normal;font-variant:normal;font-weight:300;font-stretch:normal;font-size:40px;line-height:1.25;font-family:'Yu Gothic';-inkscape-font-specification:'Yu Gothic, Light';font-variant-ligatures:normal;font-variant-caps:normal;font-variant-numeric:normal;font-feature-settings:normal;text-align:start;letter-spacing:0px;word-spacing:0px;writing-mode:lr-tb;text-anchor:start;fill:#f9f9f9;fill-opacity:1;stroke:none;stroke-width:1;"
       xml:space="preserve"><tspan
         style="font-style:normal;font-variant:normal;font-weight:300;font-stretch:normal;font-size:40px;font-family:'Yu Gothic';-inkscape-font-specification:'Yu Gothic, Light';font-variant-ligatures:normal;font-variant-caps:normal;font-variant-numeric:normal;font-feature-settings:normal;text-align:start;writing-mode:lr-tb;text-anchor:start;fill:#f9f9f9;fill-opacity:1;stroke-width:1;"
         y="214.07286"
         x="3.7254424"
         id="tspan6123"
         sodipodi:role="line">COM</tspan></text>
    <g
       inkscape:label="vida"
       transform="matrix(0.85304058,0,0,0.74782994,2.2717245,10.143198)"
       id="text6169"
       style="font-style:normal;font-variant:normal;font-weight:normal;font-stretch:normal;font-size:40px;line-height:0;font-family:Arial;-inkscape-font-specification:Arial;letter-spacing:0px;word-spacing:0px;fill:#f9f9f9;fill-opacity:1;stroke:none;stroke-width:1.25202715"
       aria-label="VIDA">
      <path
         sodipodi:nodetypes="cccccccc"
         inkscape:connector-curvature="0"
         id="path6171"
         style="font-style:normal;font-variant:normal;font-weight:bold;font-stretch:normal;font-size:53.33333206px;font-family:Arial;-inkscape-font-specification:'Arial Bold';fill:#f9f9f9;fill-opacity:1;stroke-width:1.25202715"
         d="m 129.78101,253.69954 -12.87183,-37.44167 h 7.03366 l 10.21317,27.5198 9.71555,-27.5198 h 7.03366 l -12.89505,37.44167 z" />
      <path
         inkscape:connector-curvature="0"
         id="path6173"
         style="font-style:normal;font-variant:normal;font-weight:bold;font-stretch:normal;font-size:53.33333206px;font-family:Arial;-inkscape-font-specification:'Arial Bold';fill:#f9f9f9;fill-opacity:1;stroke-width:1.25202715"
         d="m 155.43205,253.69954 v -38.17708 h 7.70833 v 38.17708 z" />
      <path
         inkscape:connector-curvature="0"
         id="path6175"
         style="font-style:normal;font-variant:normal;font-weight:bold;font-stretch:normal;font-size:53.33333206px;font-family:Arial;-inkscape-font-specification:'Arial Bold';fill:#f9f9f9;fill-opacity:1;stroke-width:1.25202715"
         d="m 170.43204,215.52246 h 14.08855 q 4.76562,0 7.26562,0.72917 3.35938,0.98958 5.75521,3.51562 2.39583,2.52604 3.64583,6.19792 1.25,3.64583 1.25,9.01042 0,4.71354 -1.17187,8.125 -1.43229,4.16666 -4.08854,6.74479 -2.00521,1.95312 -5.41667,3.04687 -2.55208,0.80729 -6.82292,0.80729 h -14.50521 z m 7.70834,6.45833 v 25.28646 h 5.75521 q 3.22916,0 4.66145,-0.36458 1.875,-0.46875 3.09896,-1.58854 1.25,-1.11979 2.03125,-3.67188 0.78125,-2.57812 0.78125,-7.00521 0,-4.42708 -0.78125,-6.79687 -0.78125,-2.36979 -2.1875,-3.69792 -1.40625,-1.32812 -3.56771,-1.79687 -1.61458,-0.36459 -6.32812,-0.36459 z" />
      <path
         sodipodi:nodetypes="ccccccc"
         inkscape:connector-curvature="0"
         id="path6177"
         style="font-style:normal;font-variant:normal;font-weight:bold;font-stretch:normal;font-size:53.33333206px;font-family:Arial;-inkscape-font-specification:'Arial Bold';fill:#f9f9f9;fill-opacity:1;stroke-width:1.25202715"
         d="m 243.42683,253.69954 h -8.38541 c -4.06506,-8.72662 -10.60798,-33.20748 -10.60798,-33.20748 0,0 -9.42375,28.40453 -11.13681,33.20748 h -8.17709 c 6.72072,-17.06577 13.21454,-38.7884 19.48896,-56.02238 z" />
    </g>
    <text
       inkscape:label="grande"
       transform="scale(1.0680299,0.93630337)"
       id="text5371"
       y="175.40646"
       x="61.350353"
       style="font-style:normal;font-variant:normal;font-weight:bold;font-stretch:normal;font-size:31.94819069px;line-height:0;font-family:Arial;-inkscape-font-specification:'Arial, Bold';font-variant-ligatures:normal;font-variant-caps:normal;font-variant-numeric:normal;font-feature-settings:normal;text-align:start;letter-spacing:0px;word-spacing:0px;writing-mode:lr-tb;text-anchor:start;fill:#f9f9f9;fill-opacity:1;stroke:none;stroke-width:1;"
       xml:space="preserve"><tspan
         style="stroke-width:1;fill:#f9f9f9;"
         y="175.40646"
         x="61.350353"
         id="tspan5369"
         sodipodi:role="line">Grande</tspan></text>
  </g>
</svg>
